<svg width="877" height="858" viewBox="0 0 877 858" fill="none" xmlns="http://www.w3.org/2000/svg">
<g style="mix-blend-mode:overlay">
<path d="M304.036 834.267L308.857 842.843L310.927 836.522L316.317 838.287L311.694 852.409L306.303 850.644L308.13 845.064L299.356 848.37L292.656 846.176L302.975 842.452L297.013 831.967L304.036 834.267Z" fill="white"/>
<path d="M281.538 830.93L287.791 833.365L289.48 829.029L294.766 831.088L289.372 844.934L277.834 840.44C272.716 838.446 272.054 835.852 273.048 833.303L273.164 833.005C274.142 830.492 276.476 828.958 281.538 830.93ZM285.435 839.414L286.443 836.827L280.823 834.638C279.613 834.167 278.877 834.459 278.58 835.222L278.558 835.278C278.247 836.078 278.568 836.739 279.815 837.225L285.435 839.414Z" fill="white"/>
<path d="M249.336 828.019L260.99 820.693C263.592 819.065 264.548 818.6 267.55 819.961L270.26 821.189L268.619 824.809L266.236 823.729C265.872 823.564 265.713 823.624 265.623 823.824L265.615 823.842C265.54 824.006 265.522 824.239 265.595 824.513L268.163 836.554L262.178 833.841L260.858 826.159L254.593 830.402L249.336 828.019Z" fill="white"/>
<path d="M247.84 810.52L242.868 820.113L248.56 823.063L246.695 826.663L230.275 818.153L232.14 814.553L237.832 817.503L242.804 807.91L247.84 810.52Z" fill="white"/>
<path d="M220.834 795.457L216.08 803.481L228.859 800.211L233.739 803.102L226.164 815.886L221.284 812.995L226.049 804.954L213.26 808.241L208.38 805.349L215.954 792.565L220.834 795.457Z" fill="white"/>
<path d="M193.07 777.006L195.143 786.624L198.987 781.196L203.616 784.474L195.028 796.601L190.399 793.323L193.793 788.531L184.434 789.098L178.68 785.023L189.639 784.512L187.04 772.735L193.07 777.006Z" fill="white"/>
<path d="M167.604 776.624L166.903 776.063C159.416 770.075 161.305 765.73 163.052 763.546L163.426 763.078C165.16 760.91 169.031 758.021 176.533 764.022L177.235 764.583C184.753 770.596 182.785 775.007 181.051 777.175L180.677 777.643C178.931 779.826 175.122 782.637 167.604 776.624ZM167.9 766.886L167.725 767.104C166.739 768.337 166.325 770.486 169.756 773.23C173.25 776.025 175.193 775.098 176.179 773.866L176.328 773.679C177.301 772.462 177.816 770.188 174.384 767.444C170.953 764.699 168.898 765.638 167.9 766.886Z" fill="white"/>
<path d="M154.846 745.757L147.441 753.952L152.005 758.076C155.969 753.69 157.524 752.564 158.974 752.152C160.463 751.694 161.826 752.064 163.841 753.885L165.204 755.116L162.366 758.258L162.144 758.057C161.551 757.522 161.156 757.273 160.596 757.386C159.699 757.545 158.453 758.626 153.272 764.361L140.675 752.98L150.637 741.954L154.846 745.757Z" fill="white"/>
<path d="M136.493 748.926L124.912 737.262L127.491 734.701L135.132 742.397L136.45 741.088L128.964 733.548L131.529 731.001L139.016 738.541L140.461 737.106L132.707 729.296L135.344 726.679L147.038 738.456L136.493 748.926Z" fill="white"/>
<path d="M125.189 715.074L125.706 715.657C131.766 722.483 129.2 726.603 127.094 728.472L126.661 728.857C124.54 730.74 120.327 732.823 114.175 725.893L113.658 725.31C107.665 718.559 109.852 714.855 111.286 713.582L111.48 713.41L115.391 717.816C115.172 718.171 114.073 719.761 116.937 722.987C119.655 726.049 121.598 725.5 122.837 724.399L123.017 724.24C124.212 723.179 125.117 721.04 122.465 718.053C119.562 714.782 117.702 715.845 117.395 716.011L113.497 711.62L113.736 711.408C115.184 710.121 119.249 708.383 125.189 715.074Z" fill="white"/>
<path d="M97.0308 705.342L96.4768 704.634C90.5678 697.085 93.4061 693.291 95.6079 691.567L96.0798 691.198C98.2659 689.487 102.697 687.566 108.618 695.13L109.172 695.838C115.106 703.419 112.177 707.259 109.991 708.97L109.519 709.339C107.317 711.063 102.964 712.923 97.0308 705.342ZM99.5575 695.933L99.3373 696.105C98.0949 697.078 97.1971 699.074 99.9055 702.534C102.663 706.057 104.767 705.602 106.01 704.629L106.198 704.482C107.425 703.521 108.449 701.427 105.74 697.967C103.032 694.507 100.816 694.948 99.5575 695.933Z" fill="white"/>
<path d="M87.3726 679.821L83.6801 674.362L86.7572 672.281L90.4498 677.74L87.3726 679.821Z" fill="white"/>
<path d="M75.1509 645.774L73.0725 655.391L78.8127 652.032L81.6776 656.927L68.8527 664.432L65.9878 659.537L71.0557 656.571L62.2957 653.228L58.7347 647.143L68.9291 651.197L71.4184 639.396L75.1509 645.774Z" fill="white"/>
<path d="M60.5234 628.358L63.5891 634.328L67.7287 632.202L70.3199 637.248L57.1015 644.036L51.4446 633.021C48.9355 628.135 50.1604 625.755 52.5945 624.505L52.8787 624.359C55.2772 623.127 58.0417 623.526 60.5234 628.358ZM57.8149 637.293L60.2845 636.025L57.529 630.66C56.936 629.505 56.1917 629.236 55.4632 629.61L55.4099 629.637C54.646 630.03 54.4481 630.738 55.0595 631.928L57.8149 637.293Z" fill="white"/>
<path d="M38.3485 604.826L51.9298 607.07C54.9564 607.577 55.9811 607.863 57.3256 610.872L58.5396 613.589L54.9109 615.211L53.8435 612.822C53.6805 612.457 53.5222 612.397 53.3216 612.486L53.3034 612.494C53.1393 612.568 52.9713 612.73 52.8441 612.984L46.7818 623.699L44.1011 617.7L48.2065 611.075L40.7033 610.096L38.3485 604.826Z" fill="white"/>
<path d="M48.8179 590.723L38.7351 594.607L41.0398 600.59L37.2565 602.047L30.6079 584.789L34.3913 583.332L36.696 589.314L46.7788 585.43L48.8179 590.723Z" fill="white"/>
<path d="M38.5906 561.541L29.7108 564.395L41.4446 570.42L43.1802 575.82L29.0334 580.367L27.2978 574.967L36.1966 572.107L24.4437 566.087L22.7081 560.687L36.8549 556.14L38.5906 561.541Z" fill="white"/>
<path d="M30.0426 529.319L25.217 537.893L31.6932 536.379L32.9845 541.902L18.5152 545.285L17.2238 539.762L22.9416 538.425L15.5596 532.644L13.9545 525.779L22.4968 532.663L28.3602 522.124L30.0426 529.319Z" fill="white"/>
<path d="M11.2335 512.148L11.0803 511.262C9.44666 501.816 13.7425 499.816 16.4977 499.34L17.0881 499.237C19.8237 498.764 24.6365 499.168 26.2736 508.635L26.4268 509.52C28.0672 519.006 23.6696 521.003 20.934 521.476L20.3436 521.578C17.5884 522.055 12.8739 521.634 11.2335 512.148ZM17.9116 505.054L17.6361 505.102C16.0813 505.371 14.3459 506.704 15.0947 511.034C15.8571 515.443 17.926 516.037 19.4808 515.769L19.7169 515.728C21.252 515.462 23.1449 514.101 22.3961 509.771C21.6474 505.442 19.4861 504.782 17.9116 505.054Z" fill="white"/>
<path d="M22.15 480.582L11.1733 481.807L11.8555 487.92C17.7309 487.265 19.641 487.453 20.9999 488.106C22.4184 488.751 23.1931 489.931 23.4943 492.63L23.6981 494.457L19.49 494.926L19.4568 494.628C19.3682 493.834 19.2379 493.387 18.7437 493.1C17.9671 492.624 16.3173 492.607 8.63561 493.464L6.75314 476.592L21.5211 474.945L22.15 480.582Z" fill="white"/>
<path d="M6.31147 470.785L5.37646 454.375L9.00557 454.168L9.62247 464.995L11.4769 464.89L10.8725 454.282L14.4817 454.076L15.0861 464.684L17.12 464.568L16.494 453.581L20.2029 453.37L21.147 469.94L6.31147 470.785Z" fill="white"/>
<path d="M20.2964 437.95L20.2972 438.729C20.3065 447.857 15.6543 449.24 12.8382 449.242L12.259 449.243C9.42292 449.246 4.88789 448.012 4.87845 438.745L4.87765 437.966C4.86845 428.938 8.96147 427.616 10.8788 427.614L11.1385 427.614L11.1445 433.506C10.7452 433.626 8.86821 434.087 8.87261 438.401C8.87678 442.496 10.6952 443.373 12.3529 443.371L12.5926 443.371C14.1904 443.369 16.2865 442.368 16.2824 438.374C16.2779 434 14.1804 433.563 13.8408 433.483L13.8348 427.611L14.1543 427.611C16.0917 427.609 20.2873 429.003 20.2964 437.95Z" fill="white"/>
<path d="M5.67255 411.993L5.72716 411.096C6.30971 401.527 10.9502 400.569 13.7412 400.739L14.3393 400.775C17.1103 400.944 21.7012 402.444 21.1175 412.033L21.0629 412.93C20.4779 422.539 15.7389 423.471 12.9679 423.303L12.3698 423.266C9.5788 423.096 5.08757 421.602 5.67255 411.993ZM13.803 406.625L13.5239 406.608C11.949 406.513 9.95337 407.412 9.68637 411.797C9.41452 416.263 11.2912 417.318 12.8661 417.414L13.1054 417.428C14.6604 417.523 16.8155 416.633 17.0825 412.248C17.3495 407.862 15.3979 406.723 13.803 406.625Z" fill="white"/>
<path d="M15.3652 386.486L16.2213 379.951L19.9047 380.434L19.0487 386.969L15.3652 386.486Z" fill="white"/>
<path d="M26.8847 362.626L19.0926 368.633L25.6456 369.769L24.6763 375.358L10.0353 372.819L11.0047 367.23L16.7902 368.233L12.254 360.027L13.4589 353.081L18.6323 362.756L28.1476 355.345L26.8847 362.626Z" fill="white"/>
<path d="M26.9436 339.882L25.4346 346.421L29.9691 347.468L28.6937 352.995L14.2146 349.653L16.9989 337.587C18.2339 332.236 20.7055 331.207 23.3717 331.822L23.683 331.894C26.3103 332.501 28.1651 334.589 26.9436 339.882ZM19.1098 344.962L21.8149 345.586L23.1711 339.709C23.463 338.444 23.0678 337.758 22.2699 337.574L22.2115 337.56C21.3747 337.367 20.7669 337.781 20.466 339.084L19.1098 344.962Z" fill="white"/>
<path d="M25.1834 307.596L34.1125 318.073C36.098 320.413 36.6964 321.292 35.7825 324.458L34.9573 327.318L31.1386 326.215L31.8642 323.702C31.975 323.318 31.893 323.169 31.682 323.109L31.6628 323.103C31.4901 323.053 31.2568 323.069 30.9959 323.181L19.4509 327.457L21.2731 321.144L28.6842 318.73L23.5827 313.142L25.1834 307.596Z" fill="white"/>
<path d="M42.2808 303.575L32.071 300.038L29.9723 306.096L26.1413 304.768L32.1955 287.293L36.0265 288.62L33.9278 294.678L44.1376 298.215L42.2808 303.575Z" fill="white"/>
<path d="M53.2942 274.68L44.6682 271.132L49.746 283.306L47.5882 288.551L33.8459 282.899L36.0036 277.653L44.648 281.209L39.5518 269.027L41.7096 263.781L55.4519 269.434L53.2942 274.68Z" fill="white"/>
<path d="M67.5498 244.546L58.3314 247.984L64.2564 251.005L61.6798 256.058L48.4418 249.308L51.0185 244.255L56.2496 246.923L54.3391 237.743L57.5418 231.462L59.6273 242.233L70.9067 237.963L67.5498 244.546Z" fill="white"/>
<path d="M64.2567 219.291L64.711 218.516C69.5573 210.244 74.1296 211.488 76.5421 212.901L77.0591 213.204C79.4545 214.608 82.871 218.021 78.0147 226.31L77.5603 227.086C72.6939 235.392 68.0456 234.081 65.6502 232.677L65.1332 232.374C62.7207 230.961 59.3902 227.598 64.2567 219.291ZM73.9357 218.18L73.6944 218.038C72.333 217.241 70.1466 217.14 67.9254 220.932C65.6638 224.792 66.8608 226.581 68.2222 227.379L68.429 227.5C69.7731 228.287 72.0975 228.469 74.3187 224.677C76.5399 220.886 75.3143 218.988 73.9357 218.18Z" fill="white"/>
<path d="M92.9629 202.216L83.7859 196.07L80.3629 201.181C85.275 204.471 86.6126 205.848 87.2302 207.223C87.8975 208.631 87.7283 210.032 86.2169 212.289L85.1944 213.816L81.6763 211.46L81.843 211.211C82.2876 210.547 82.4768 210.121 82.284 209.583C81.9978 208.718 80.7482 207.641 74.326 203.34L83.7726 189.235L96.1192 197.503L92.9629 202.216Z" fill="white"/>
<path d="M87.1813 184.513L97.0543 171.371L99.9606 173.554L93.4465 182.225L94.9316 183.341L101.314 174.845L104.204 177.017L97.8219 185.512L99.4506 186.736L106.061 177.937L109.031 180.168L99.0618 193.438L87.1813 184.513Z" fill="white"/>
<path d="M119.051 168.447L118.549 169.043C112.667 176.023 108.221 174.078 106.067 172.263L105.624 171.89C103.455 170.063 100.786 166.194 106.758 159.107L107.26 158.512C113.077 151.608 117.057 153.239 118.523 154.474L118.722 154.641L114.925 159.147C114.543 158.981 112.811 158.123 110.031 161.422C107.393 164.553 108.216 166.396 109.484 167.464L109.667 167.619C110.889 168.648 113.136 169.236 115.71 166.181C118.529 162.836 117.208 161.149 117 160.869L120.784 156.379L121.028 156.585C122.51 157.833 124.816 161.605 119.051 168.447Z" fill="white"/>
<path d="M124.622 139.18L125.243 138.529C131.861 131.594 136.025 133.856 138.048 135.786L138.481 136.2C140.49 138.117 143.03 142.224 136.397 149.174L135.777 149.825C129.131 156.789 124.908 154.444 122.9 152.527L122.467 152.114C120.444 150.183 117.976 146.144 124.622 139.18ZM134.297 140.324L134.095 140.131C132.954 139.041 130.849 138.441 127.815 141.62C124.727 144.856 125.48 146.873 126.622 147.962L126.795 148.128C127.922 149.203 130.142 149.914 133.176 146.735C136.209 143.556 135.453 141.427 134.297 140.324Z" fill="white"/>
<path d="M148.485 125.944L153.355 121.503L155.858 124.248L150.988 128.689L148.485 125.944Z" fill="white"/>
<path d="M180.414 108.943L170.599 108.272L174.75 113.468L170.319 117.009L161.043 105.4L165.475 101.859L169.14 106.447L171.186 97.2962L176.694 92.8954L174.151 103.568L186.188 104.33L180.414 108.943Z" fill="white"/>
<path d="M195.539 91.9572L190.074 95.8513L192.774 99.6413L188.155 102.933L179.532 90.8308L189.617 83.6453C194.09 80.4581 196.622 81.3271 198.21 83.5555L198.395 83.8158C199.96 86.0117 199.964 88.8048 195.539 91.9572ZM186.307 90.5649L187.918 92.8258L192.831 89.3257C193.888 88.5724 194.047 87.7971 193.572 87.1302L193.537 87.0814C193.038 86.382 192.31 86.2883 191.22 87.0648L186.307 90.5649Z" fill="white"/>
<path d="M215.63 66.6221L215.367 80.3851C215.301 83.4532 215.166 84.5084 212.383 86.2725L209.869 87.8655L207.741 84.5084L209.951 83.1078C210.289 82.894 210.326 82.7286 210.208 82.543L210.198 82.5262C210.101 82.3743 209.916 82.2315 209.647 82.1422L198.169 77.6878L203.72 74.1703L210.867 77.2778L210.754 69.712L215.63 66.6221Z" fill="white"/>
<path d="M231.095 74.949L225.798 65.5314L220.21 68.6744L218.222 65.1406L234.342 56.0738L236.33 59.6076L230.742 62.7506L236.039 72.1683L231.095 74.949Z" fill="white"/>
<path d="M258.499 60.6224L254.394 52.2467L250.123 64.7266L245.029 67.2225L238.491 53.8788L243.584 51.3829L247.697 59.7765L251.96 47.2787L257.054 44.7828L263.592 58.1265L258.499 60.6224Z" fill="white"/>
<path d="M289.131 47.5196L279.952 43.9802L282.383 50.1705L277.104 52.2445L271.671 38.4139L276.95 36.3399L279.097 41.8052L283.754 33.6671L290.316 31.0892L284.735 40.5345L296.01 44.8175L289.131 47.5196Z" fill="white"/>
<path d="M303.412 26.4315L304.267 26.1523C313.379 23.174 315.977 27.1367 316.846 29.7945L317.032 30.3641C317.894 33.0029 318.188 37.8237 309.057 40.8081L308.202 41.0874C299.052 44.078 296.442 40.0142 295.58 37.3753L295.393 36.8058C294.525 34.148 294.262 29.4221 303.412 26.4315ZM311.395 32.0174L311.308 31.7516C310.818 30.2518 309.248 28.7268 305.071 30.0918C300.819 31.4817 300.528 33.6148 301.018 35.1145L301.093 35.3423C301.577 36.8231 303.196 38.5 307.373 37.135C311.549 35.77 311.891 33.5361 311.395 32.0174Z" fill="white"/>
<path d="M336.223 32.6844L333.429 21.9988L327.477 23.555C328.973 29.2746 329.061 31.192 328.612 32.6308C328.177 34.1275 327.122 35.0641 324.494 35.7513L322.716 36.2162L321.645 32.1197L321.935 32.0439C322.708 31.8418 323.132 31.6483 323.344 31.118C323.703 30.2809 323.482 28.6459 321.527 21.1679L337.951 16.8732L341.71 31.2494L336.223 32.6844Z" fill="white"/>
<path d="M343.634 15.5988L359.739 12.3081L360.466 15.8695L349.841 18.0407L350.213 19.8605L360.623 17.7334L361.347 21.2752L350.936 23.4024L351.344 25.3983L362.126 23.1952L362.87 26.8349L346.609 30.1576L343.634 15.5988Z" fill="white"/>
<path d="M378.142 24.705L377.371 24.818C368.34 26.1429 366.301 21.7386 365.892 18.9523L365.808 18.3792C365.397 15.5731 365.964 10.9077 375.133 9.56252L375.904 9.44946C384.836 8.13911 386.734 11.9988 387.012 13.8958L387.05 14.1527L381.221 15.0079C381.044 14.6301 380.317 12.8393 376.049 13.4654C371.998 14.0597 371.392 15.9855 371.633 17.6257L371.667 17.8628C371.899 19.4437 373.192 21.3737 377.144 20.7939C381.472 20.159 381.602 18.0203 381.632 17.6728L387.441 16.8205L387.488 17.1366C387.769 19.0535 386.995 23.4062 378.142 24.705Z" fill="white"/>
<path d="M401.72 6.4918L402.615 6.41653C412.168 5.6137 413.785 10.0676 414.02 12.854L414.07 13.4511C414.302 16.2175 413.48 20.9767 403.906 21.7812L403.011 21.8564C393.418 22.6626 391.813 18.1075 391.58 15.3411L391.53 14.744C391.296 11.9576 392.127 7.29798 401.72 6.4918ZM408.203 13.7637L408.18 13.485C408.048 11.9127 406.871 10.0675 402.492 10.4355C398.034 10.8101 397.261 12.8193 397.393 14.3916L397.413 14.6304C397.543 16.1828 398.734 18.1872 403.113 17.8193C407.491 17.4513 408.337 15.3559 408.203 13.7637Z" fill="white"/>
<path d="M428.357 12.4072L434.948 12.3123L435.001 16.0269L428.411 16.1217L428.357 12.4072Z" fill="white"/>
<path d="M453.629 20.3672L446.562 13.5223L446.382 20.1707L440.711 20.017L441.114 5.1629L446.784 5.3166L446.625 11.1864L454.092 5.51468L461.139 5.70572L452.311 12.2196L461.016 20.5674L453.629 20.3672Z" fill="white"/>
<path d="M476.144 17.1475L469.456 16.5968L469.074 21.2347L463.421 20.7693L464.64 5.95982L476.981 6.97591C482.455 7.42659 483.829 9.72409 483.605 12.4511L483.578 12.7696C483.357 15.4568 481.558 17.5932 476.144 17.1475ZM469.988 10.1276L469.761 12.8944L475.772 13.3894C477.066 13.4959 477.687 13.006 477.754 12.1899L477.759 12.1302C477.83 11.2742 477.333 10.7324 476 10.6226L469.988 10.1276Z" fill="white"/>
<path d="M507.839 10.7513L498.759 21.0973C496.73 23.3993 495.946 24.1183 492.681 23.6703L489.732 23.2658L490.273 19.3282L492.865 19.6838C493.26 19.7381 493.395 19.6357 493.425 19.418L493.428 19.3982C493.452 19.2201 493.403 18.9916 493.255 18.7495L487.359 7.94148L493.869 8.83464L497.326 15.8204L502.121 9.96671L507.839 10.7513Z" fill="white"/>
<path d="M514.283 27.0909L516.311 16.4779L510.014 15.2743L510.775 11.2919L528.941 14.764L528.18 18.7463L521.883 17.5427L519.854 28.1558L514.283 27.0909Z" fill="white"/>
<path d="M544.464 33.8238L546.731 24.7765L535.416 31.5561L529.914 30.177L533.527 15.7633L539.029 17.1424L536.757 26.2091L548.077 19.4102L553.579 20.7893L549.966 35.2029L544.464 33.8238Z" fill="white"/>
<path d="M576.337 43.5879L571.606 34.9612L569.471 41.2598L564.099 39.4384L568.87 25.3658L574.242 27.1872L572.357 32.7481L581.165 29.5344L587.842 31.7983L577.484 35.4146L583.335 45.9608L576.337 43.5879Z" fill="white"/>
<path d="M600.854 36.6887L601.687 37.0265C610.571 40.6298 609.999 45.3336 608.948 47.9247L608.723 48.48C607.68 51.0526 604.794 54.9255 595.892 51.3147L595.059 50.9769C586.138 47.3585 586.765 42.5697 587.809 39.9971L588.034 39.4418C589.085 36.8507 591.933 33.0703 600.854 36.6887ZM603.349 46.1063L603.454 45.8472C604.047 44.3851 603.832 42.207 599.76 40.5554C595.614 38.8739 594.016 40.3163 593.423 41.7784L593.333 42.0005C592.747 43.4442 592.903 45.7704 596.975 47.4219C601.047 49.0734 602.749 47.587 603.349 46.1063Z" fill="white"/>
<path d="M621.888 62.6336L626.647 52.6667L621.096 50.0161C618.549 55.3511 617.379 56.8732 616.108 57.6825C614.81 58.5458 613.399 58.5804 610.948 57.41L609.29 56.6183L611.114 52.7973L611.385 52.9264C612.106 53.2706 612.555 53.3965 613.059 53.1282C613.873 52.7203 614.759 51.3285 618.09 44.3534L633.41 51.6682L627.007 65.0776L621.888 62.6336Z" fill="white"/>
<path d="M638.573 54.3607L653.001 62.2363L651.26 65.427L641.74 60.2308L640.85 61.8611L650.177 66.9521L648.445 70.1251L639.118 65.0342L638.142 66.8223L647.802 72.0951L646.022 75.3558L631.454 67.4036L638.573 54.3607Z" fill="white"/>
<path d="M659.065 83.5813L658.403 83.1705C650.648 78.3565 651.932 73.676 653.417 71.2834L653.722 70.7913C655.218 68.3817 658.661 65.1829 666.535 70.0706L667.197 70.4814C674.867 75.2427 673.827 79.4165 672.816 81.0455L672.679 81.2661L667.673 78.1586C667.782 77.7561 668.382 75.9187 664.717 73.6434C661.238 71.484 659.533 72.5647 658.659 73.9731L658.532 74.1767C657.689 75.5342 657.432 77.8426 660.826 79.9494C664.542 82.2563 666.021 80.7063 666.268 80.46L671.257 83.5569L671.088 83.8284C670.067 85.4744 666.667 88.3005 659.065 83.5813Z" fill="white"/>
<path d="M688.83 84.8765L689.563 85.3968C697.38 90.9466 695.742 95.3929 694.123 97.6729L693.776 98.1614C692.169 100.425 688.47 103.531 680.637 97.9693L679.904 97.449C672.054 91.8761 673.767 87.36 675.374 85.0963L675.721 84.6077C677.339 82.3277 680.98 79.3036 688.83 84.8765ZM689.092 94.6156L689.254 94.3876C690.168 93.1011 690.459 90.9317 686.876 88.388C683.228 85.7981 681.341 86.8344 680.428 88.121L680.289 88.3164C679.387 89.5867 679.003 91.8863 682.586 94.43C686.169 96.9736 688.167 95.9185 689.092 94.6156Z" fill="white"/>
<path d="M705.367 106.582L710.463 110.761L708.108 113.634L703.011 109.454L705.367 106.582Z" fill="white"/>
<path d="M726.793 135.727L726.041 125.918L721.498 130.775L717.356 126.9L727.507 116.048L731.649 119.923L727.638 124.211L736.988 124.916L742.136 129.733L731.209 128.755L732.19 140.776L726.793 135.727Z" fill="white"/>
<path d="M745.781 148.247L741.139 143.4L737.778 146.618L733.855 142.521L744.588 132.244L753.152 141.188C756.951 145.155 756.456 147.786 754.48 149.678L754.249 149.899C752.301 151.764 749.538 152.17 745.781 148.247ZM745.828 138.91L743.823 140.83L747.994 145.187C748.892 146.125 749.682 146.17 750.274 145.604L750.317 145.562C750.937 144.968 750.925 144.233 749.999 143.267L745.828 138.91Z" fill="white"/>
<path d="M773.748 164.475L760.091 166.199C757.045 166.576 755.981 166.594 753.835 164.094L751.896 161.837L754.911 159.247L756.616 161.232C756.876 161.535 757.045 161.548 757.212 161.405L757.227 161.392C757.363 161.275 757.478 161.071 757.527 160.792L760.281 148.792L764.562 153.777L762.517 161.298L769.987 160.096L773.748 164.475Z" fill="white"/>
<path d="M767.737 180.979L776.293 174.38L772.377 169.303L775.588 166.827L786.883 181.471L783.673 183.948L779.757 178.871L771.201 185.47L767.737 180.979Z" fill="white"/>
<path d="M785.863 206.031L793.56 200.763L780.595 198.335L777.391 193.654L789.653 185.261L792.857 189.941L785.143 195.221L798.125 197.638L801.329 202.318L789.067 210.712L785.863 206.031Z" fill="white"/>
<path d="M803.249 234.475L805.428 224.881L799.653 228.179L796.839 223.254L809.742 215.884L812.556 220.809L807.457 223.722L816.181 227.157L819.678 233.279L809.527 229.118L806.914 240.892L803.249 234.475Z" fill="white"/>
<path d="M826.174 245.567L826.574 246.373C830.835 254.961 827.288 258.103 824.783 259.345L824.246 259.612C821.759 260.845 817.031 261.831 812.761 253.225L812.362 252.42C808.084 243.796 811.729 240.628 814.216 239.394L814.753 239.128C817.257 237.885 821.896 236.944 826.174 245.567ZM821.797 254.272L822.048 254.147C823.461 253.446 824.744 251.673 822.791 247.736C820.803 243.729 818.65 243.749 817.237 244.45L817.022 244.556C815.627 245.249 814.201 247.093 816.154 251.029C818.106 254.966 820.366 254.982 821.797 254.272Z" fill="white"/>
<path d="M824.717 278.936L834.888 274.631L832.49 268.966C827.046 271.27 825.161 271.634 823.672 271.396C822.129 271.182 821.05 270.273 819.991 267.771L819.275 266.079L823.174 264.429L823.291 264.705C823.602 265.44 823.855 265.832 824.41 265.966C825.29 266.201 826.876 265.746 833.994 262.733L840.612 278.367L826.927 284.159L824.717 278.936Z" fill="white"/>
<path d="M842.692 283.807L848.27 299.269L844.85 300.503L841.17 290.301L839.423 290.931L843.029 300.926L839.628 302.153L836.023 292.158L834.106 292.849L837.84 303.201L834.346 304.462L828.714 288.849L842.692 283.807Z" fill="white"/>
<path d="M838.655 319.267L838.432 318.521C835.819 309.775 839.883 307.123 842.582 306.317L843.137 306.151C845.854 305.339 850.553 305.228 853.205 314.107L853.428 314.854C856.012 323.503 852.467 325.938 850.63 326.487L850.381 326.562L848.694 320.916C849.043 320.687 850.71 319.71 849.475 315.576C848.303 311.653 846.31 311.331 844.722 311.806L844.492 311.874C842.961 312.332 841.238 313.889 842.381 317.716C843.633 321.907 845.768 321.728 846.117 321.707L847.797 327.333L847.491 327.425C845.635 327.979 841.216 327.84 838.655 319.267Z" fill="white"/>
<path d="M860.076 339.974L860.28 340.849C862.451 350.187 858.277 352.429 855.553 353.062L854.97 353.198C852.266 353.827 847.437 353.699 845.262 344.342L845.058 343.466C842.877 334.09 847.154 331.844 849.858 331.215L850.441 331.08C853.165 330.446 857.896 330.597 860.076 339.974ZM853.815 347.438L854.087 347.375C855.624 347.017 857.28 345.586 856.285 341.306C855.271 336.949 853.172 336.473 851.635 336.831L851.402 336.885C849.884 337.238 848.072 338.705 849.068 342.985C850.063 347.265 852.258 347.8 853.815 347.438Z" fill="white"/>
<path d="M858.062 367.186L859.106 373.694L855.438 374.282L854.394 367.775L858.062 367.186Z" fill="white"/>
<path d="M853.828 393.341L859.582 385.361L852.977 386.141L852.312 380.508L867.069 378.765L867.734 384.398L861.903 385.087L868.592 391.658L869.419 398.659L861.7 390.863L854.694 400.68L853.828 393.341Z" fill="white"/>
<path d="M860.259 415.156L859.84 408.459L855.195 408.749L854.841 403.088L869.672 402.16L870.445 414.519C870.788 420.001 868.713 421.691 865.982 421.862L865.663 421.882C862.972 422.051 860.598 420.578 860.259 415.156ZM866.318 408.053L863.548 408.227L863.924 414.247C864.005 415.542 864.58 416.087 865.397 416.036L865.457 416.032C866.314 415.978 866.779 415.409 866.695 414.073L866.318 408.053Z" fill="white"/>
<path d="M871.157 445.599L859.61 438.105C857.039 436.428 856.215 435.756 856.188 432.461L856.163 429.485L860.137 429.452L860.159 432.068C860.162 432.468 860.283 432.587 860.503 432.585L860.523 432.585C860.703 432.583 860.922 432.501 861.14 432.32L870.985 424.928L871.04 431.499L864.625 435.926L871.109 439.827L871.157 445.599Z" fill="white"/>
<path d="M855.917 454.331L866.712 454.808L866.995 448.403L871.046 448.583L870.228 467.059L866.178 466.88L866.461 460.475L855.667 459.998L855.917 454.331Z" fill="white"/>
<path d="M853.605 485.167L862.885 486.107L854.545 475.887L855.117 470.244L869.901 471.741L869.329 477.384L860.029 476.442L868.389 486.664L867.817 492.307L853.033 490.81L853.605 485.167Z" fill="white"/>
<path d="M848.537 518.115L856.391 512.19L849.851 510.985L850.879 505.406L865.492 508.1L864.464 513.678L858.69 512.614L863.139 520.867L861.861 527.8L856.79 518.072L847.197 525.382L848.537 518.115Z" fill="white"/>
<path d="M858.898 541.381L858.683 542.254C856.398 551.564 851.661 551.676 848.946 551.01L848.364 550.867C845.668 550.205 841.419 547.908 843.709 538.578L843.923 537.705C846.218 528.356 851.047 528.287 853.743 528.949L854.325 529.091C857.041 529.758 861.192 532.031 858.898 541.381ZM849.938 545.207L850.21 545.274C851.742 545.65 853.866 545.123 854.914 540.855C855.98 536.51 854.322 535.137 852.79 534.761L852.557 534.704C851.044 534.332 848.765 534.822 847.717 539.089C846.67 543.356 848.386 544.826 849.938 545.207Z" fill="white"/>
<path d="M836.255 565.935L846.804 569.208L848.627 563.333C842.981 561.581 841.306 560.643 840.322 559.501C839.28 558.342 839.043 556.951 839.848 554.356L840.392 552.602L844.436 553.856L844.347 554.142C844.111 554.905 844.051 555.368 844.389 555.828C844.91 556.575 846.415 557.251 853.797 559.541L848.767 575.756L834.575 571.353L836.255 565.935Z" fill="white"/>
<path d="M846.847 581.254L841.134 596.667L837.725 595.403L841.495 585.234L839.754 584.589L836.06 594.551L832.67 593.295L836.364 583.332L834.454 582.624L830.628 592.942L827.145 591.651L832.914 576.089L846.847 581.254Z" fill="white"/>
<path d="M820.886 605.743L821.197 605.029C824.843 596.662 829.66 597.257 832.241 598.382L832.772 598.613C835.372 599.746 839.034 602.692 835.332 611.188L835.021 611.902C831.415 620.178 827.135 619.751 825.377 618.985L825.139 618.882L827.493 613.48C827.907 613.53 829.812 613.859 831.535 609.904C833.17 606.15 831.855 604.619 830.335 603.957L830.116 603.861C828.651 603.223 826.329 603.3 824.734 606.962C822.987 610.972 824.734 612.213 825.013 612.422L822.668 617.805L822.375 617.677C820.598 616.903 817.312 613.946 820.886 605.743Z" fill="white"/>
<path d="M823.894 635.384L823.485 636.184C819.119 644.719 814.484 643.739 811.994 642.466L811.461 642.194C808.989 640.929 805.383 637.717 809.757 629.164L810.166 628.363C814.549 619.792 819.265 620.836 821.737 622.1L822.27 622.373C824.76 623.646 828.277 626.813 823.894 635.384ZM814.294 637.047L814.543 637.175C815.948 637.893 818.137 637.868 820.137 633.956C822.174 629.973 820.877 628.255 819.472 627.537L819.259 627.428C817.872 626.718 815.541 626.67 813.54 630.582C811.539 634.495 812.872 636.32 814.294 637.047Z" fill="white"/>
<path d="M804.799 654.877L801.399 660.522L798.216 658.605L801.617 652.96L804.799 654.877Z" fill="white"/>
<path d="M779.046 680.28L788.645 678.123L783.184 674.327L786.421 669.669L798.623 678.15L795.386 682.808L790.564 679.456L791.214 688.81L787.19 694.599L786.582 683.645L774.829 686.348L779.046 680.28Z" fill="white"/>
<path d="M769.395 700.875L773.522 695.583L769.853 692.721L773.342 688.249L785.058 697.388L777.442 707.152C774.064 711.483 771.39 711.372 769.232 709.689L768.98 709.493C766.854 707.834 766.054 705.158 769.395 700.875ZM778.641 699.576L776.452 697.868L772.742 702.624C771.943 703.648 772.012 704.436 772.658 704.94L772.705 704.977C773.382 705.505 774.108 705.387 774.931 704.332L778.641 699.576Z" fill="white"/>
<path d="M757.367 730.889L753.693 717.623C752.88 714.663 752.709 713.613 754.873 711.128L756.828 708.885L759.825 711.495L758.106 713.468C757.844 713.769 757.856 713.938 758.021 714.083L758.036 714.096C758.172 714.214 758.39 714.298 758.674 714.307L770.945 715.302L766.629 720.257L758.891 719.317L761.158 726.536L757.367 730.889Z" fill="white"/>
<path d="M740.169 727.32L747.933 734.835L752.392 730.228L755.305 733.048L742.442 746.337L739.529 743.517L743.988 738.91L736.224 731.395L740.169 727.32Z" fill="white"/>
<path d="M717.991 748.868L724.314 755.725L724.848 742.545L729.018 738.7L739.091 749.624L734.921 753.469L728.585 746.598L728.065 759.792L723.895 763.637L713.821 752.713L717.991 748.868Z" fill="white"/>
<path d="M692.35 770.171L702.159 770.944L698.062 765.705L702.53 762.211L711.683 773.917L707.215 777.411L703.598 772.785L701.456 781.914L695.902 786.256L698.557 775.611L686.529 774.723L692.35 770.171Z" fill="white"/>
<path d="M684.678 794.457L683.939 794.968C676.055 800.422 672.434 797.365 670.844 795.065L670.503 794.573C668.923 792.29 667.266 787.753 675.167 782.287L675.906 781.776C683.823 776.299 687.484 779.45 689.063 781.733L689.404 782.226C690.995 784.525 692.595 788.98 684.678 794.457ZM675.434 791.38L675.593 791.61C676.491 792.907 678.431 793.921 682.044 791.421C685.724 788.876 685.393 786.749 684.496 785.451L684.359 785.254C683.473 783.973 681.442 782.828 677.829 785.328C674.215 787.827 674.525 790.066 675.434 791.38Z" fill="white"/>
<path d="M651.448 797.823L657.175 807.268L662.435 804.078C659.37 799.023 658.738 797.211 658.759 795.703C658.748 794.145 659.493 792.946 661.815 791.538L663.386 790.585L665.582 794.206L665.325 794.361C664.642 794.775 664.291 795.082 664.239 795.651C664.133 796.555 664.812 798.059 668.819 804.669L654.302 813.47L646.598 800.764L651.448 797.823Z" fill="white"/>
<path d="M649.219 816.313L634.722 824.061L633.009 820.855L642.573 815.743L641.698 814.105L632.327 819.114L630.623 815.926L639.994 810.917L639.033 809.12L629.328 814.308L627.577 811.031L642.214 803.208L649.219 816.313Z" fill="white"/>
<path d="M613.547 817.429L614.254 817.101C622.531 813.255 625.742 816.895 626.928 819.449L627.172 819.974C628.368 822.546 629.155 827.179 620.751 831.084L620.044 831.413C611.857 835.217 608.936 832.059 608.128 830.32L608.019 830.084L613.362 827.602C613.639 827.914 614.847 829.423 618.759 827.605C622.473 825.88 622.504 823.861 621.805 822.358L621.704 822.14C621.031 820.691 619.242 819.21 615.619 820.893C611.652 822.736 612.138 824.823 612.208 825.165L606.883 827.639L606.748 827.349C605.932 825.593 605.433 821.2 613.547 817.429Z" fill="white"/>
<path d="M596.144 841.612L595.307 841.939C586.38 845.434 583.56 841.626 582.541 839.023L582.322 838.465C581.31 835.879 580.741 831.083 589.687 827.581L590.524 827.254C599.488 823.744 602.326 827.652 603.338 830.237L603.557 830.795C604.576 833.399 605.109 838.102 596.144 841.612ZM587.856 836.491L587.958 836.752C588.533 838.221 590.187 839.654 594.279 838.052C598.445 836.421 598.613 834.275 598.038 832.806L597.95 832.583C597.383 831.132 595.67 829.55 591.578 831.152C587.486 832.754 587.273 835.004 587.856 836.491Z" fill="white"/>
<path d="M568.926 843.541L562.637 845.512L561.526 841.967L567.815 839.996L568.926 843.541Z" fill="white"/>
</g>
</svg>
