<svg width="85" height="83" viewBox="0 0 85 83" fill="none" xmlns="http://www.w3.org/2000/svg">
<path d="M76.6491 59.645C76.6491 59.645 75.6733 60.7214 73.608 62.5731C71.5607 64.4045 68.5276 67.1398 64.4106 70.4193C62.3318 72.041 59.9926 73.8125 57.2441 75.4925C54.5169 77.2098 51.3816 78.8547 47.7797 80.0845C40.6559 82.597 31.4018 83.2144 22.375 79.4908C20.1474 78.563 17.9457 77.4222 15.8615 75.9859C13.7423 74.6094 11.7415 72.9567 9.88183 71.0842C8.00411 69.2319 6.30355 67.1194 4.85789 64.761C3.41335 62.4219 2.18427 59.8201 1.51908 56.993C0.755794 54.1332 0.799802 51.2648 0.609348 48.333C0.766173 45.4195 0.859893 42.4135 1.59178 39.4664C2.8233 33.5472 5.3673 27.7053 9.12422 22.5427C16.6144 12.1419 28.7196 4.6837 42.23 1.85582C45.6129 1.15816 49.0882 0.724384 52.604 0.653696C56.1164 0.525501 59.7278 0.776181 63.2781 1.62672C66.8284 2.47726 70.3007 3.96707 73.3351 6.19413C76.3696 8.4212 78.9064 11.3505 80.7159 14.6686C84.2829 21.4038 85.0013 29.094 84.05 36.1893C83.0819 43.3241 80.5139 50.0714 76.7984 55.9433C74.931 58.8798 72.7819 61.6019 70.3251 63.9958C67.8683 66.3897 65.2007 68.469 62.4217 70.2854C56.8647 73.9375 50.8425 76.5396 44.7484 78.2419C38.6544 79.9442 32.4075 80.6745 26.3358 80.1251C20.3364 79.4945 14.3477 77.4015 10.1414 73.2233C8.05969 71.1714 6.4551 68.7262 5.30606 66.1774C4.28897 63.5825 3.51884 60.9347 3.28767 58.2939C2.65282 53.0223 3.16682 47.9913 4.14412 43.318C6.13593 33.95 10.3145 26.1276 15.0899 20.2901C19.8213 14.3588 25.269 10.4824 30.0598 8.20221C34.8439 5.80704 39.024 5.25518 41.7303 4.82784C44.511 4.68468 45.9723 4.67628 45.9587 4.77325C45.9643 4.86909 44.5164 5.10753 41.8045 5.43902C39.1477 6.05581 35.1322 6.7904 30.5646 9.2691C25.9902 11.6328 20.8514 15.5297 16.4019 21.3483C11.9096 27.0924 8.00844 34.7254 6.24568 43.7339C5.37332 48.2279 4.96428 53.0796 5.6162 57.9848C5.85647 60.452 6.61204 62.8506 7.53679 65.1816C8.59347 67.4665 10.0448 69.5936 11.9 71.3895C15.6319 75.0184 20.9926 76.898 26.5828 77.4371C32.2271 77.9153 38.147 77.1849 43.9738 75.5174C49.7814 73.8511 55.5387 71.3221 60.7968 67.8221C66.0955 64.3582 70.797 59.8906 74.2417 54.3231C77.709 48.8119 80.1258 42.4388 81.0059 35.7709C81.8881 29.1412 81.1683 22.0858 78.0114 16.1152C74.8353 10.1457 69.0369 6.04127 62.5654 4.57274C59.3465 3.79901 56.0046 3.55176 52.6839 3.66876C49.3407 3.72938 46.0559 4.13285 42.8432 4.7821C30.0139 7.41632 18.4807 14.4564 11.3933 24.1797C7.82821 29.0041 5.41518 34.4537 4.21877 39.9861C3.51403 42.7393 3.40913 45.5537 3.22418 48.315C3.38539 51.0753 3.31655 53.8491 3.96159 56.3311C4.53332 58.8751 5.63398 61.2535 6.93426 63.428C8.23567 65.6217 9.79424 67.6079 11.5514 69.371C13.2701 71.1363 15.1322 72.7202 17.1139 74.0471C19.0595 75.4145 21.1247 76.5249 23.1967 77.4232C27.342 79.2392 31.6771 80.0247 35.7983 80.111C39.9003 80.1984 43.7647 79.5111 47.22 78.4053C50.6944 77.2983 53.7609 75.7921 56.4756 74.191C59.2117 72.6271 61.5758 70.9503 63.6793 69.4233C67.8649 66.3322 71.022 63.7435 73.1933 62.0588C75.3837 60.3728 76.5646 59.5153 76.6277 59.6078L76.6491 59.645Z" fill="#CCFF00"/>
</svg>
