<svg width="16" height="16" viewBox="0 0 16 16" fill="none" xmlns="http://www.w3.org/2000/svg">
<g clip-path="url(#clip0_489_43)">
<rect width="16" height="16" fill="#CCFF00"/>
<path fill-rule="evenodd" clip-rule="evenodd" d="M2.49967 11.6852C2.21332 10.9302 1.84444 9.6712 2.06955 9.06574C2.32507 8.37848 2.85373 6.34063 3.08659 5.40793L4.11863 7.29599V4.87299L5.39627 1.17871L5.67566 4.46265L6.48497 5.87526L6.9116 5.72011L7.20246 5.16627L7.51345 2.54942L6.83997 0.120117L10.9434 2.7634L11.7388 6.38973L11.4519 7.18902L12.8202 5.40793L13.7741 9.44713L13.2727 11.7137L13.5695 12.3503L9.50894 16.0005H6.2502L2.18965 12.3503L2.49967 11.6852ZM10.8558 12.4674L11.066 12.1577L9.66886 10.281L11.1503 9.71456L10.3182 7.75478L7.91798 8.69754H7.84116L5.44077 7.75478L4.60885 9.71456L6.09028 10.281L4.69317 12.1577L4.95622 12.4674L7.8902 13.3245L10.8558 12.4674ZM6.26532 14.2975H9.49382L10.5147 13.132L7.88393 13.8997L5.38423 13.132L6.26532 14.2975ZM8.22591 9.46256L9.99565 8.71112L10.1467 9.18061L8.34549 9.76341L8.22591 9.46256ZM5.76296 8.71025L5.61066 9.17975L7.41312 9.76381L7.47858 9.47304L5.76296 8.71025ZM8.02475 11.5598V10.7857L8.74851 10.4861L8.83661 10.7227L8.5169 11.1155V11.3307L8.02475 11.5598ZM6.94622 10.6836L7.24201 11.1153V11.3305L7.73417 11.5697V10.7855L7.01041 10.486L6.94622 10.6836Z" fill="black"/>
</g>
<defs>
<clipPath id="clip0_489_43">
<rect width="16" height="16" fill="white"/>
</clipPath>
</defs>
</svg>
