<svg width="192" height="40" viewBox="0 0 192 40" fill="none" xmlns="http://www.w3.org/2000/svg">
<path fill-rule="evenodd" clip-rule="evenodd" d="M77.1271 15.966H78.266C87.2739 15.966 89.8365 21.2993 89.8365 25.5607V26.345C89.8365 30.528 87.2739 36.0444 78.266 36.0444H77.1271C68.1193 36.0444 65.5567 30.528 65.5567 26.345V25.5607C65.5567 21.3254 68.1193 15.966 77.1271 15.966ZM84.2972 26.1359V25.7699C84.2972 23.3647 83.1324 20.4104 77.6966 20.4104C72.3126 20.4104 71.096 23.3647 71.096 25.7699V26.1359C71.096 28.4888 72.3902 31.5738 77.6966 31.5738C83.1065 31.5738 84.2972 28.4888 84.2972 26.1359Z" fill="#CCFF00"/>
<path d="M51.3048 36.0441H50.8907C42.4005 36.0441 39.7344 30.6847 39.7344 26.3187V25.6128C39.7344 21.4821 42.2193 16.0442 50.9942 16.0442H51.8743C60.2609 16.0442 62.927 19.7304 62.927 22.9461V22.9984H57.4136L57.4005 22.9668C57.1749 22.4201 56.3562 20.4363 51.4601 20.4363C46.7232 20.4363 45.2737 23.1291 45.2737 25.7435V26.0834C45.2737 28.6193 46.8785 31.652 51.6413 31.652C56.197 31.652 57.2065 29.1945 57.2842 28.6193H52.0555V25.1422H63.16V35.7566H58.9149C58.8373 35.0507 58.5525 33.6912 58.2678 33.0638C57.8536 33.6128 55.8346 36.0441 51.3048 36.0441Z" fill="#CCFF00"/>
<path fill-rule="evenodd" clip-rule="evenodd" d="M114.223 31.7306C114.223 28.8809 112.644 27.2862 110.03 26.6849C112.437 26.1358 114.094 24.4888 114.094 22.0574V21.796C114.094 19.6783 113.266 16.5934 105.94 16.5934H92.9721V36.0443H98.3043V29.4299H105.241C107.933 29.4299 108.839 30.5803 108.839 33.0901V34.6848C108.839 35.5476 108.943 35.9136 109.021 36.0443H114.534V35.9136C114.353 35.5999 114.223 35.2077 114.223 33.7437V31.7306ZM98.3043 25.0117V20.8809H105.733C107.908 20.8809 108.503 21.7698 108.503 22.894V22.9463C108.503 24.0705 107.908 25.0117 105.733 25.0117H98.3043Z" fill="#CCFF00"/>
<path d="M123.002 16.5934V36.0443H117.669V16.5934H123.002Z" fill="#CCFF00"/>
<path d="M132.948 16.5934H127.616V36.0443H144.726V31.4692H132.948V16.5934Z" fill="#CCFF00"/>
<path d="M147.122 16.5934H152.454V31.4692H164.232V36.0443H147.122V16.5934Z" fill="#CCFF00"/>
<path fill-rule="evenodd" clip-rule="evenodd" d="M183.206 32.4365L184.785 36.0443H190.506L181.575 16.5934H174.431L165.889 36.0443H171.247L172.801 32.4365H183.206ZM177.926 20.5149L181.42 28.4365H174.535L177.926 20.5149Z" fill="#CCFF00"/>
<path fill-rule="evenodd" clip-rule="evenodd" d="M15.4339 6.10386L14.6771 12.6225L13.9373 14.0596L12.7934 14.4022L10.8272 10.8934L10.1682 2.88184L6.95966 11.8156L6.84528 17.9021L4.34453 13.3239L1.64062 22.9562L2.82065 29.16L2.15537 30.8773L12.2215 39.9958L20.4771 40L30.6276 30.7834L29.8854 29.2219L31.1565 23.5054L28.7364 13.3156L25.5102 17.5222L25.4808 17.4926L25.4514 17.4629L26.0408 15.7349L24.0532 6.63988L13.7657 0L15.4339 6.10386ZM16.171 21.5562H16.5545L22.3812 19.2413L24.5228 24.173L20.8738 25.6484L24.2894 30.2549L23.7747 31.1364L20.0779 32.2148L16.381 33.2933L8.98856 31.1239L8.38242 30.323L11.8197 25.6584L8.16588 24.1358L10.3536 19.2507L16.171 21.5562ZM10.6773 22.8168L15.0812 24.2651L15.3766 23.5556L11.1592 21.6715H11.1006H11.0419L10.6773 22.8168ZM17.2279 23.5556L17.4834 24.2651L21.9445 22.828L21.6642 21.6715L21.5756 21.6791L21.4869 21.6867L17.2279 23.5556ZM14.0201 26.612L14.7952 27.7719V28.2382L15.9482 28.827L15.8819 26.8187L14.1356 26.1671L14.0201 26.612ZM16.797 26.8422L16.731 28.8093L17.9409 28.2729L18.0173 27.6232L18.7709 26.6859L18.535 26.1671L16.797 26.8422ZM16.3929 34.7386L22.8262 32.8386L22.8598 32.8746L22.8934 32.9107L20.4574 35.7167L12.3067 35.7349L10.1822 32.8138L16.3929 34.7386Z" fill="#CCFF00"/>
</svg>
